<svg viewBox="0 0 400 400" xmlns="http://www.w3.org/2000/svg">
  <!-- Kerkuil - Wit met hartvormig gezicht -->
  <defs>
    <radialGradient id="kerkuilGradient" cx="0.5" cy="0.3" r="0.8">
      <stop offset="0%" style="stop-color:#FFF8DC;stop-opacity:1" />
      <stop offset="60%" style="stop-color:#F5F5DC;stop-opacity:1" />
      <stop offset="100%" style="stop-color:#DCDCDC;stop-opacity:1" />
    </radialGradient>
    <radialGradient id="kerkuilBack" cx="0.5" cy="0.3" r="0.8">
      <stop offset="0%" style="stop-color:#D2691E;stop-opacity:1" />
      <stop offset="60%" style="stop-color:#CD853F;stop-opacity:1" />
      <stop offset="100%" style="stop-color:#A0522D;stop-opacity:1" />
    </radialGradient>
  </defs>
  
  <!-- Achtergrond cirkel -->
  <circle cx="200" cy="200" r="180" fill="#1a2a24" stroke="#1fdf8f" stroke-width="2" opacity="0.1"/>
  
  <!-- Lichaam -->
  <ellipse cx="200" cy="260" rx="75" ry="85" fill="url(#kerkuilGradient)"/>
  
  <!-- Rugkant (bruine accenten) -->
  <ellipse cx="150" cy="240" rx="20" ry="50" fill="url(#kerkuilBack)" opacity="0.7" transform="rotate(-20 150 240)"/>
  <ellipse cx="250" cy="240" rx="20" ry="50" fill="url(#kerkuilBack)" opacity="0.7" transform="rotate(20 250 240)"/>
  
  <!-- Hoofd -->
  <circle cx="200" cy="170" r="70" fill="url(#kerkuilGradient)"/>
  
  <!-- Hartvormig gezicht -->
  <path d="M 200 130 C 220 140, 240 160, 220 180 C 210 190, 200 195, 200 200 C 200 195, 190 190, 180 180 C 160 160, 180 140, 200 130 Z" 
        fill="#FFF" stroke="#DDD" stroke-width="1"/>
  
  <!-- Ogen - groot en donker -->
  <circle cx="185" cy="165" r="20" fill="#000"/>
  <circle cx="215" cy="165" r="20" fill="#000"/>
  <circle cx="188" cy="162" r="4" fill="#FFF"/>
  <circle cx="218" cy="162" r="4" fill="#FFF"/>
  
  <!-- Snavel -->
  <polygon points="200,185 194,195 206,195" fill="#F4A460"/>
  
  <!-- Vleugels met bruine vlekken -->
  <ellipse cx="140" cy="250" rx="30" ry="70" fill="url(#kerkuilGradient)" transform="rotate(-10 140 250)"/>
  <ellipse cx="260" cy="250" rx="30" ry="70" fill="url(#kerkuilGradient)" transform="rotate(10 260 250)"/>
  
  <!-- Bruine vlekken op vleugels -->
  <ellipse cx="135" cy="230" rx="8" ry="15" fill="url(#kerkuilBack)" opacity="0.6" transform="rotate(-10 135 230)"/>
  <ellipse cx="265" cy="230" rx="8" ry="15" fill="url(#kerkuilBack)" opacity="0.6" transform="rotate(10 265 230)"/>
  
  <!-- Poten -->
  <ellipse cx="185" cy="335" rx="10" ry="18" fill="#F4A460"/>
  <ellipse cx="215" cy="335" rx="10" ry="18" fill="#F4A460"/>
  
  <!-- Accent groene details -->
  <circle cx="200" cy="110" r="3" fill="#1fdf8f" opacity="0.8"/>
  <text x="200" y="370" text-anchor="middle" fill="#1fdf8f" font-family="system-ui" font-size="16" font-weight="bold">Kerkuil</text>
</svg>
