<svg viewBox="0 0 400 400" xmlns="http://www.w3.org/2000/svg">
  <!-- Kerkuil - Wit met hartvormig gezicht (clean version) -->
  <defs>
    <radialGradient id="kerkuilGradient" cx="0.5" cy="0.3" r="0.8">
      <stop offset="0%" style="stop-color:#FFF8DC;stop-opacity:1" />
      <stop offset="60%" style="stop-color:#F5F5DC;stop-opacity:1" />
      <stop offset="100%" style="stop-color:#DCDCDC;stop-opacity:1" />
    </radialGradient>
    <radialGradient id="kerkuilBack" cx="0.5" cy="0.3" r="0.8">
      <stop offset="0%" style="stop-color:#D2691E;stop-opacity:1" />
      <stop offset="60%" style="stop-color:#CD853F;stop-opacity:1" />
      <stop offset="100%" style="stop-color:#A0522D;stop-opacity:1" />
    </radialGradient>
  </defs>
  
  <!-- Lichaam -->
  <ellipse cx="200" cy="260" rx="75" ry="85" fill="url(#kerkuilGradient)"/>
  
  <!-- Rugkant (bruine accenten) -->
  <ellipse cx="150" cy="240" rx="20" ry="50" fill="url(#kerkuilBack)" opacity="0.7" transform="rotate(-20 150 240)"/>
  <ellipse cx="250" cy="240" rx="20" ry="50" fill="url(#kerkuilBack)" opacity="0.7" transform="rotate(20 250 240)"/>
  
  <!-- Hoofd -->
  <circle cx="200" cy="170" r="70" fill="url(#kerkuilGradient)"/>
  
  <!-- Hartvormig gezicht -->
  <path d="M 200 110 C 250 115, 270 140, 240 180 C 220 200, 200 210, 200 220 C 200 210, 180 200, 160 180 C 130 140, 150 115, 200 110 Z" 
        fill="#FFF" stroke="#DDD" stroke-width="1"/>
  
  <!-- Ogen - groot en donker -->
  <circle cx="180" cy="155" r="16" fill="#000"/>
  <circle cx="220" cy="155" r="16" fill="#000"/>
  <circle cx="183" cy="152" r="3" fill="#FFF"/>
  <circle cx="223" cy="152" r="3" fill="#FFF"/>
  
  <!-- Snavel -->
  <polygon points="200,185 194,195 206,195" fill="#F4A460"/>
  
  <!-- Vleugels met bruine vlekken -->
  <ellipse cx="140" cy="250" rx="30" ry="70" fill="url(#kerkuilGradient)" transform="rotate(-10 140 250)"/>
  <ellipse cx="260" cy="250" rx="30" ry="70" fill="url(#kerkuilGradient)" transform="rotate(10 260 250)"/>
  
  <!-- Bruine vlekken op vleugels -->
  <ellipse cx="135" cy="230" rx="8" ry="15" fill="url(#kerkuilBack)" opacity="0.6" transform="rotate(-10 135 230)"/>
  <ellipse cx="265" cy="230" rx="8" ry="15" fill="url(#kerkuilBack)" opacity="0.6" transform="rotate(10 265 230)"/>
  
  <!-- Poten -->
  <ellipse cx="185" cy="335" rx="10" ry="18" fill="#F4A460"/>
  <ellipse cx="215" cy="335" rx="10" ry="18" fill="#F4A460"/>
</svg>
