<svg viewBox="0 0 400 400" xmlns="http://www.w3.org/2000/svg">
  <!-- Ransuil - Met karakteristieke oorpluimen -->
  <defs>
    <radialGradient id="ransuilGradient" cx="0.5" cy="0.3" r="0.8">
      <stop offset="0%" style="stop-color:#A0522D;stop-opacity:1" />
      <stop offset="60%" style="stop-color:#8B4513;stop-opacity:1" />
      <stop offset="100%" style="stop-color:#654321;stop-opacity:1" />
    </radialGradient>
    <radialGradient id="ransuilBelly" cx="0.5" cy="0.7" r="0.6">
      <stop offset="0%" style="stop-color:#F4A460;stop-opacity:1" />
      <stop offset="80%" style="stop-color:#DEB887;stop-opacity:1" />
      <stop offset="100%" style="stop-color:#D2B48C;stop-opacity:1" />
    </radialGradient>
  </defs>
  
  <!-- Achtergrond cirkel -->
  <circle cx="200" cy="200" r="180" fill="#1a2a24" stroke="#1fdf8f" stroke-width="2" opacity="0.1"/>
  
  <!-- Lichaam -->
  <ellipse cx="200" cy="270" rx="70" ry="90" fill="url(#ransuilBelly)"/>
  
  <!-- Hoofd -->
  <ellipse cx="200" cy="160" rx="65" ry="70" fill="url(#ransuilGradient)"/>
  
  <!-- Oorpluimen - karakteristiek van ransuil -->
  <ellipse cx="175" cy="110" rx="8" ry="25" fill="url(#ransuilGradient)" transform="rotate(-15 175 110)"/>
  <ellipse cx="225" cy="110" rx="8" ry="25" fill="url(#ransuilGradient)" transform="rotate(15 225 110)"/>
  
  <!-- Gezichtschijf -->
  <ellipse cx="200" cy="160" rx="50" ry="55" fill="#F4A460" opacity="0.8"/>
  <ellipse cx="200" cy="160" rx="45" ry="50" fill="none" stroke="#8B4513" stroke-width="2" opacity="0.6"/>
  
  <!-- Ogen - oranje -->
  <circle cx="185" cy="155" r="18" fill="#FF8C00"/>
  <circle cx="215" cy="155" r="18" fill="#FF8C00"/>
  <circle cx="185" cy="155" r="12" fill="#000"/>
  <circle cx="215" cy="155" r="12" fill="#000"/>
  <circle cx="188" cy="152" r="3" fill="#FFF"/>
  <circle cx="218" cy="152" r="3" fill="#FFF"/>
  
  <!-- Snavel -->
  <polygon points="200,175 194,183 206,183" fill="#8B4513"/>
  
  <!-- Vleugels -->
  <ellipse cx="145" cy="250" rx="28" ry="75" fill="url(#ransuilGradient)" transform="rotate(-10 145 250)"/>
  <ellipse cx="255" cy="250" rx="28" ry="75" fill="url(#ransuilGradient)" transform="rotate(10 255 250)"/>
  
  <!-- Verticale strepen op borst - karakteristiek -->
  <line x1="180" y1="280" x2="180" y2="320" stroke="#8B4513" stroke-width="3" opacity="0.7"/>
  <line x1="195" y1="285" x2="195" y2="315" stroke="#8B4513" stroke-width="2" opacity="0.7"/>
  <line x1="205" y1="285" x2="205" y2="315" stroke="#8B4513" stroke-width="2" opacity="0.7"/>
  <line x1="220" y1="280" x2="220" y2="320" stroke="#8B4513" stroke-width="3" opacity="0.7"/>
  
  <!-- Vlekken op vleugels -->
  <ellipse cx="140" cy="230" rx="6" ry="12" fill="#654321" opacity="0.8"/>
  <ellipse cx="150" cy="270" rx="5" ry="10" fill="#654321" opacity="0.8"/>
  <ellipse cx="260" cy="230" rx="6" ry="12" fill="#654321" opacity="0.8"/>
  <ellipse cx="250" cy="270" rx="5" ry="10" fill="#654321" opacity="0.8"/>
  
  <!-- Poten -->
  <ellipse cx="185" cy="350" rx="10" ry="18" fill="#DAA520"/>
  <ellipse cx="215" cy="350" rx="10" ry="18" fill="#DAA520"/>
  
  <!-- Accent groene details -->
  <circle cx="200" cy="90" r="3" fill="#1fdf8f" opacity="0.8"/>
  <text x="200" y="385" text-anchor="middle" fill="#1fdf8f" font-family="system-ui" font-size="16" font-weight="bold">Ransuil</text>
</svg>
