<svg viewBox="0 0 400 400" xmlns="http://www.w3.org/2000/svg">
  <!-- Velduil - Slank met lange vleugels (clean version) -->
  <defs>
    <radialGradient id="velduilGradient" cx="0.5" cy="0.3" r="0.8">
      <stop offset="0%" style="stop-color:#D2B48C;stop-opacity:1" />
      <stop offset="60%" style="stop-color:#BC9A6A;stop-opacity:1" />
      <stop offset="100%" style="stop-color:#8B7355;stop-opacity:1" />
    </radialGradient>
    <radialGradient id="velduilBelly" cx="0.5" cy="0.7" r="0.6">
      <stop offset="0%" style="stop-color:#F5DEB3;stop-opacity:1" />
      <stop offset="80%" style="stop-color:#DEB887;stop-opacity:1" />
      <stop offset="100%" style="stop-color:#D2B48C;stop-opacity:1" />
    </radialGradient>
  </defs>
  
  <!-- Lichaam - slank -->
  <ellipse cx="200" cy="260" rx="65" ry="95" fill="url(#velduilBelly)"/>
  
  <!-- Hoofd -->
  <circle cx="200" cy="160" r="60" fill="url(#velduilGradient)"/>
  
  <!-- Gezichtschijf - minder prominent -->
  <circle cx="200" cy="160" r="45" fill="#F5DEB3" opacity="0.8"/>
  
  <!-- Ogen - geel -->
  <circle cx="185" cy="155" r="16" fill="#FFD700"/>
  <circle cx="215" cy="155" r="16" fill="#FFD700"/>
  <circle cx="185" cy="155" r="10" fill="#000"/>
  <circle cx="215" cy="155" r="10" fill="#000"/>
  <circle cx="187" cy="152" r="2" fill="#FFF"/>
  <circle cx="217" cy="152" r="2" fill="#FFF"/>
  
  <!-- Snavel -->
  <polygon points="200,170 195,178 205,178" fill="#8B7355"/>
  
  <!-- Lange vleugels - karakteristiek voor velduil -->
  <ellipse cx="145" cy="250" rx="25" ry="75" fill="url(#velduilGradient)" transform="rotate(-5 145 250)"/>
  <ellipse cx="255" cy="250" rx="25" ry="75" fill="url(#velduilGradient)" transform="rotate(5 255 250)"/>
  
  <!-- Gestreepte patronen op borst -->
  <line x1="180" y1="280" x2="220" y2="280" stroke="#8B7355" stroke-width="2" opacity="0.5"/>
  <line x1="185" y1="295" x2="215" y2="295" stroke="#8B7355" stroke-width="2" opacity="0.5"/>
  <line x1="180" y1="310" x2="220" y2="310" stroke="#8B7355" stroke-width="2" opacity="0.5"/>
  
  <!-- Poten -->
  <ellipse cx="185" cy="345" rx="8" ry="16" fill="#DAA520"/>
  <ellipse cx="215" cy="345" rx="8" ry="16" fill="#DAA520"/>
</svg>
